<svg width="188" height="187" viewBox="0 0 188 187" version="1.1" xmlns="http://www.w3.org/2000/svg" xmlns:xlink="http://www.w3.org/1999/xlink">
<title>skyteam-1</title>
<desc>Created using Figma</desc>
<g id="Canvas" transform="translate(-2851 -4857)">
<g id="skyteam-1">
<g id="Group">
<g id="Vector">
<use xlink:href="#path0_fill" transform="translate(2851.83 4857.2)" fill="#FFFFFF"/>
</g>
<g id="Vector">
<use xlink:href="#path1_fill" transform="translate(2889.41 4914.35)" fill="#FFFFFF"/>
</g>
</g>
</g>
</g>
<defs>
<path id="path0_fill" fill-rule="evenodd" d="M 147.039 9.176L 146.004 8.71L 146.26 8.14L 149.055 9.398L 148.799 9.968L 147.764 9.502L 146.393 12.547L 145.67 12.22L 147.039 9.176L 147.039 9.176ZM 149.604 9.627L 150.746 10.185L 150.275 13.298L 150.285 13.303L 152.449 11.018L 153.594 11.575L 151.855 15.136L 151.17 14.802L 152.605 11.864L 152.596 11.859L 150.201 14.329L 149.518 13.996L 149.994 10.589L 149.977 10.594L 148.547 13.522L 147.865 13.188L 149.604 9.627L 149.604 9.627ZM 158.043 40.456L 157.965 40.547C 171.522 54.168 180.445 72.535 181.891 93.21C 185.08 138.876 150.657 178.485 104.989 181.677C 83.523 183.181 63.402 176.366 47.769 163.982L 47.686 164.076C 63.909 179.203 86.122 187.822 110 186.156C 155.662 182.961 190.094 143.353 186.896 97.687C 185.285 74.602 174.357 54.39 158.043 40.456ZM 11.134 134.702C 8.505 136.169 7.905 138.388 9.265 141.798C 10.508 144.913 12.464 146.261 14.551 145.429C 16.22 144.761 16.506 143.318 15.806 139.57L 15.507 138.129C 14.832 134.443 14.715 132.856 15.155 131.274C 15.587 129.504 16.61 128.335 18.159 127.717C 21.916 126.217 25.463 128.526 27.57 133.805C 29.849 139.51 28.624 143.803 24.179 145.653L 23.068 142.868C 26.157 141.516 26.937 138.62 25.289 134.489C 23.937 131.114 21.781 129.616 19.521 130.52C 17.702 131.247 17.268 132.938 17.939 136.778L 18.201 138.383L 18.454 139.803C 18.936 142.653 18.994 143.657 18.717 144.869C 18.355 146.383 17.38 147.494 15.828 148.113C 12.312 149.517 8.928 147.445 7.028 142.691C 4.975 137.545 6.073 133.72 10.033 131.951L 11.134 134.702L 11.134 134.702ZM 8.79 104.777L 21.362 94.183L 21.449 98.101L 10.794 106.921L 14.251 110.728L 21.728 110.562L 21.796 113.634L 0.424 114.109L 0.354 111.038L 8.763 110.851L 9.917 110.857L 11.01 110.835L 10.285 110.075L 9.562 109.314L 0.09 99.109L 1.10626e-07 95.048L 8.79 104.777L 8.79 104.777ZM 18.253 71.677L 26.491 74.571L 25.474 77.468L 17.238 74.574L 2.472 79.027L 3.713 75.496L 12.88 72.934L 14.012 72.622C 14.469 72.481 14.757 72.434 15.565 72.268C 14.843 71.414 14.678 71.207 13.921 70.159L 8.268 62.502L 9.446 59.137L 18.253 71.677L 18.253 71.677ZM 32.719 32.441L 28.2 37.962L 41.685 49.002L 38.444 52.965L 24.956 41.923L 20.459 47.413L 17.404 44.91L 29.664 29.942L 32.719 32.441ZM 61.565 12.178L 50.776 18.488L 53.079 22.424L 62.985 16.631L 64.83 19.789L 54.927 25.582L 57.585 30.126L 68.586 23.692L 70.581 27.101L 55.157 36.118L 44.362 17.665L 59.576 8.771L 61.565 12.178L 61.565 12.178ZM 102.949 20.482L 97.349 20.841L 94.585 16.223L 85.971 17.597L 84.766 22.863L 79.434 24.235L 85.057 0.871L 90.325 0.034L 102.949 20.482L 102.949 20.482ZM 90.719 9.463C 89.551 7.504 89.09 6.635 88.418 5.114C 88.229 6.64 88.021 7.779 87.509 9.973L 86.622 14.047L 92.83 13.059L 90.719 9.463L 90.719 9.463ZM 137.285 27.325L 132.785 25.61L 134.494 19.256C 134.685 18.511 134.961 17.488 135.334 16.194C 135.688 14.856 135.996 13.811 136.234 13.045C 136.5 12.183 136.773 11.292 137.054 10.371L 137.564 8.846C 136.304 11.005 135.804 11.769 134.65 13.522C 134.16 14.289 133.701 14.933 133.332 15.467L 127.264 23.962L 123.371 22.939L 122.154 12.725C 122.068 12.208 122.017 11.461 121.947 10.45C 121.869 9.099 121.802 8.087 121.773 7.382C 121.74 6.808 121.748 5.947 121.759 4.791L 121.226 7.372C 120.597 10.192 120.312 11.412 119.462 14.775L 117.683 21.658L 112.954 20.916L 118.303 4.76837e-08L 125.498 1.394L 126.51 11.284C 126.776 13.611 126.813 15.545 126.715 18.305C 127.524 16.729 127.813 16.205 128.74 14.759C 129.359 13.791 129.902 12.974 130.39 12.236L 136.017 4.158L 142.837 6.474L 137.285 27.325L 137.285 27.325Z"/>
<path id="path1_fill" fill-rule="evenodd" d="M 58.8503 11.3485C 56.2473 13.6215 51.1193 18.5485 46.1563 23.3125L 40.5323 28.7005C 35.9836 27.8747 31.3693 27.4636 26.7463 27.4725C 16.3273 27.4725 6.78926 30.3375 2.44826 34.7715C 0.785261 36.4735 -0.0367412 38.3185 0.00125881 40.2605C 0.110259 45.2915 5.87626 47.8325 7.63726 48.4945C 16.8853 51.9415 24.6433 50.9415 32.7953 45.2405C 37.3063 42.0825 42.7233 37.0255 46.9423 32.9755C 50.2353 33.7315 53.9703 34.7035 57.9813 35.8795L 61.6863 36.9675C 56.8913 41.6745 51.9653 46.6555 47.3943 50.6865L 47.0473 50.9915C 40.6953 56.5955 36.1023 60.6455 29.4693 62.1185C 24.7983 63.1575 21.4903 62.1655 20.3973 61.4975C 20.3043 61.5135 20.1463 61.7145 20.1463 61.7145C 23.9863 64.8725 27.6203 66.6655 33.8753 66.1225C 39.8313 65.6065 46.7083 61.8565 53.7483 55.2745L 63.2443 45.9505L 69.8943 39.3455C 69.8943 39.3805 83.3413 43.2885 83.3413 43.2885C 83.4483 43.3195 83.5953 43.3585 83.5953 43.3585C 83.4493 43.3625 75.2673 51.4525 75.2673 51.4525L 68.1113 58.5655C 60.7933 65.6805 56.8063 69.3685 52.5323 72.3975C 45.4523 77.4155 39.4103 80.0285 34.0643 80.3855C 31.3073 80.5695 27.3183 80.3775 23.9903 78.4245C 23.8433 78.3975 23.6463 78.5765 23.6463 78.5765C 27.2543 81.6815 31.6883 85.3775 39.3133 85.1645C 47.9403 84.9205 55.5723 80.7695 67.4643 69.8445C 72.8883 64.8675 78.2733 59.2975 83.0283 54.3855L 91.8643 45.4305C 97.6883 46.7255 102.884 47.2415 108.632 47.1275C 117.015 46.9655 124.165 42.9535 124.255 38.3735C 124.325 34.9865 121.544 33.1815 119.882 32.1035C 118.511 31.2075 114.753 29.1275 109.577 29.1275C 103.302 29.1275 96.7513 31.8975 90.1143 37.3595L 85.6843 41.2575C 85.7313 41.2365 84.0633 40.8105 84.0633 40.8105L 71.7623 37.3675C 75.3893 33.9785 78.4833 31.0735 81.2683 28.5965C 87.9953 22.6115 95.4483 20.1525 99.7953 19.8705C 102.959 19.6655 108.496 19.9425 110.772 21.5515C 110.874 21.5315 111.026 21.3025 111.026 21.3025C 104.971 16.1215 99.7313 15.4365 95.4013 15.4365C 91.1513 15.4365 84.3173 16.7945 75.9603 23.2735C 72.5443 25.9155 68.1103 30.3335 63.4783 35.0095C 63.4783 34.9725 57.2513 33.0945 57.2513 33.0945L 55.7493 32.6195C 55.7493 32.6195 49.2193 30.6415 49.2083 30.6405C 49.3553 30.6345 52.9423 27.1255 52.9423 27.1255C 57.3463 22.8035 61.5103 18.7195 64.7563 15.9845C 76.5593 6.0605 83.9883 4.76249 89.1493 4.74049C 94.8073 4.71949 99.3013 5.8835 102.51 8.2065C 102.608 8.1905 102.754 7.9795 102.754 7.9795C 96.1253 1.9835 91.3633 0.068496 83.1313 0.000495966C 75.9123 -0.051504 67.2833 3.9745 58.8503 11.3485L 58.8503 11.3485ZM 12.4823 46.7245C 8.64926 46.4625 6.78626 44.9125 6.78626 41.9785C 6.78626 41.5835 7.03326 32.2305 28.4693 31.1535C 30.9163 31.0335 33.6473 30.9535 37.8013 31.4255C 37.6323 31.4365 35.3823 33.5035 35.3823 33.5035L 34.0413 34.7185C 28.8663 39.4045 20.2173 47.2485 12.4823 46.7245L 12.4823 46.7245ZM 99.2113 39.1215C 105.375 34.9745 110.512 32.7545 113.695 32.8655C 115.591 32.9345 117.84 33.5045 117.84 35.8345C 117.84 38.2235 115.57 40.2385 111.096 41.8285C 107.18 43.2265 101.17 43.5865 94.6143 42.8465C 96.4203 41.2145 97.9263 39.9885 99.2113 39.1215L 99.2113 39.1215Z"/>
</defs>
</svg>
