<svg width="18" height="18" viewBox="0 0 18 18" version="1.1" xmlns="http://www.w3.org/2000/svg" xmlns:xlink="http://www.w3.org/1999/xlink">
<title>plane-taking-off</title>
<desc>Created using Figma</desc>
<g id="Canvas" transform="translate(-6327 -667)">
<g id="plane-taking-off">
<g id="Combined Shape">
<use xlink:href="#path0_fill" transform="matrix(0.707107 0.707107 -0.707107 0.707107 6333.17 667.515)" fill="#A0B0B9"/>
</g>
</g>
</g>
<defs>
<path id="path0_fill" fill-rule="evenodd" d="M 4.07418 1.08703C 4.13494 1.08703 8.58962 2.62904 8.58962 2.62904L 8.49187 2.68251C 10.5741 1.64628 12.7063 0.608921 13.4977 0.302411C 13.528 0.289895 14.2423 0.000129475 14.8989 0C 15.5228 0.000345267 15.8002 0.266762 15.9281 0.499601C 16.2909 1.25807 15.2216 2.1202 14.1 2.67388L 11.7016 3.89107L 6.92544 6.31511L 3.64652 7.97834C 3.6053 7.99928 3.559 8.00476 3.51515 7.99612C 3.48299 7.98952 3.45214 7.97524 3.42611 7.95335L 0.0683898 5.13149C 0.0187576 5.09014 -0.0061016 5.0273 0.00127849 4.96425C 0.00904699 4.90089 0.0482348 4.84548 0.106024 4.81626L 0.370067 4.67772C 0.427856 4.6485 0.497255 4.64885 0.555044 4.67902L 3.61657 5.14206C 3.61657 5.14206 4.62341 4.62697 6.00465 3.9297C 5.89296 3.82905 5.70436 3.65288 5.6984 3.65728L 4.151 2.22866L 3.2628 1.41089C 3.34325 1.38707 3.51959 1.31137 3.68782 1.23929C 3.86995 1.16109 4.0425 1.08712 4.07418 1.08703Z"/>
</defs>
</svg>
