<svg width="18" height="14" viewBox="0 0 18 14" version="1.1" xmlns="http://www.w3.org/2000/svg" xmlns:xlink="http://www.w3.org/1999/xlink">
<title>Combined Shape</title>
<desc>Created using Figma</desc>
<g id="Canvas" transform="translate(-5510 -3625)">
<g id="Combined Shape">
<use xlink:href="#path0_fill" transform="translate(5510 3625)" fill="#FFFFFF"/>
</g>
</g>
<defs>
<path id="path0_fill" fill-rule="evenodd" d="M 1 0C 0.447754 0 0 0.447754 0 1C 0 1.55225 0.447754 2 1 2L 17 2C 17.3877 2 17.7236 1.77954 17.8896 1.45703C 17.9604 1.32007 18 1.16479 18 1C 18 0.447754 17.5522 0 17 0L 1 0ZM 0 7C 0 6.73901 0.100098 6.50146 0.263672 6.32349C 0.446289 6.12476 0.708496 6 1 6L 17 6C 17.5522 6 18 6.44775 18 7C 18 7.55225 17.5522 8 17 8L 1 8C 0.447754 8 0 7.55225 0 7ZM 0 13C 0 12.4478 0.447754 12 1 12L 17 12C 17.5522 12 18 12.4478 18 13C 18 13.5522 17.5522 14 17 14L 1 14C 0.447754 14 0 13.5522 0 13Z"/>
</defs>
</svg>
