<svg width="14" height="16" viewBox="0 0 14 16" version="1.1" xmlns="http://www.w3.org/2000/svg" xmlns:xlink="http://www.w3.org/1999/xlink">
<title>avatar</title>
<desc>Created using Figma</desc>
<g id="Canvas" transform="translate(-5463 -3624)">
<g id="avatar">
<g id="Shape">
<use xlink:href="#path0_fill" transform="translate(5466.34 3624)" fill="#FFFFFF"/>
</g>
<g id="Shape">
<use xlink:href="#path1_fill" transform="translate(5463 3632.59)" fill="#FFFFFF"/>
</g>
</g>
</g>
<defs>
<path id="path0_fill" fill-rule="evenodd" d="M 3.44885 8.61938L 3.39563 8.61938C 2.42639 8.60278 1.64221 8.26172 1.06604 7.60913C -0.207889 6.17139 0.00402472 3.70679 0.0269739 3.47168C 0.109982 1.69287 0.95715 0.848145 1.65197 0.453857C 2.34338 0.0595703 3.06506 0 3.43225 0L 3.45178 0L 3.46545 0L 3.4884 0C 3.83899 0.00683594 4.17053 0.0539551 4.48059 0.139648C 4.76184 0.217529 5.02502 0.326904 5.26867 0.467041C 5.95715 0.861328 6.79065 1.70605 6.87365 3.47168C 6.8966 3.70679 7.10852 6.17139 5.83459 7.60913C 5.25549 8.26172 4.47131 8.60278 3.50158 8.61938L 3.46838 8.61938L 3.44885 8.61938ZM 0.914181 3.52783C 0.914181 3.53467 0.910763 3.54443 0.910763 3.55444C 0.907345 3.57422 0.682247 5.83691 1.73156 7.01611C 2.14514 7.48657 2.70422 7.71851 3.43225 7.7251L 3.44885 7.7251L 3.46545 7.7251C 4.19641 7.71851 4.75256 7.48657 5.16955 7.01611C 6.2218 5.83032 5.98986 3.57764 5.98693 3.55444C 5.98352 3.54785 5.98352 3.53784 5.98352 3.52783C 5.88098 1.28198 4.36193 0.91748 3.46887 0.897705L 3.44201 0.897705L 3.42883 0.897705C 2.70764 0.897705 1.02307 1.15283 0.914181 3.52783Z"/>
<path id="path1_fill" d="M 13.591 4.11945C 13.591 4.11614 13.591 4.11282 13.591 4.10951C 13.591 4.08301 13.5877 4.05651 13.5877 4.0267C 13.5678 3.3708 13.5248 1.83705 12.0887 1.34678C 12.0788 1.34347 12.0655 1.34015 12.0556 1.33684C 10.5632 0.955889 9.32236 0.0946049 9.30912 0.084667C 9.10728 -0.0577761 8.82932 -0.00808664 8.68703 0.193984C 8.54474 0.396054 8.59438 0.674315 8.79623 0.816758C 8.85248 0.85651 10.1695 1.77411 11.8173 2.19812C 12.5883 2.47307 12.6744 3.29792 12.6975 4.0532C 12.6975 4.08301 12.6975 4.10951 12.7009 4.13601C 12.7042 4.43415 12.6843 4.8946 12.6314 5.15962C 12.0953 5.46438 9.99409 6.51779 6.79759 6.51779C 3.61433 6.51779 1.49988 5.46106 0.960511 5.1563C 0.907567 4.89129 0.884404 4.43084 0.891022 4.1327C 0.891022 4.1062 0.894331 4.0797 0.894331 4.04988C 0.917494 3.2946 1.00353 2.46976 1.77453 2.19481C 3.42241 1.7708 4.73939 0.849884 4.79565 0.813445C 4.99749 0.671002 5.04713 0.392742 4.90484 0.190671C 4.76256 -0.0113993 4.4846 -0.0610887 4.28275 0.0813544C 4.26951 0.0912922 3.03526 0.952576 1.53628 1.33353C 1.52304 1.33684 1.51311 1.34015 1.50319 1.34347C 0.0670806 1.83705 0.0240636 3.3708 0.0042096 4.02338C 0.0042096 4.0532 0.0042096 4.0797 0.000900596 4.1062C 0.000900596 4.10951 0.000900596 4.11282 0.000900596 4.11614C -0.00240841 4.28839 -0.00571741 5.17287 0.16966 5.61676C 0.20275 5.70289 0.262312 5.77576 0.341728 5.82545C 0.440998 5.89171 2.82017 7.40889 6.8009 7.40889C 10.7816 7.40889 13.1608 5.88839 13.2601 5.82545C 13.3362 5.77576 13.3991 5.70289 13.4321 5.61676C 13.5976 5.17618 13.5943 4.29171 13.591 4.11945Z"/>
</defs>
</svg>
