<svg width="30" height="29" viewBox="0 0 30 29" version="1.1" xmlns="http://www.w3.org/2000/svg" xmlns:xlink="http://www.w3.org/1999/xlink">
<title>logo</title>
<desc>Created using Figma</desc>
<g id="Canvas" transform="translate(-2413 -12)">
<g id="logo">
<use xlink:href="#path0_fill" transform="translate(2413 12)" fill="#FFFFFF"/>
<use xlink:href="#path1_fill" transform="translate(2413 12)" fill="#FFFFFF"/>
<use xlink:href="#path2_fill" transform="translate(2413 12)" fill="#FFFFFF"/>
</g>
</g>
<defs>
<path id="path0_fill" fill-rule="evenodd" d="M 22.989 12.563C 22.989 8.918 19.852 6 16.029 6L 13.972 6C 10.149 6 7.01196 8.92 7.01196 12.563L 7.01196 19.353C 7.01196 22.995 10.149 26 13.972 26L 16.029 26C 19.852 26 22.989 22.995 22.989 19.352L 22.989 12.563ZM 29.999 20L 30 24.252C 30 27.174 28.11 29 24.58 29L 4.916 29C 1.89 29 0.001 27.174 0.001 24.252L 0 20L 0.933 20C 3.136 20 4.995 18.445 4.995 16.418L 4.995 12.582C 4.995 10.555 3.136 9 0.933 9L 0 9L 0 4.748C 0 1.826 1.89 0 4.915 0L 24.58 0C 27.606 0 30 1.826 30 4.748L 30 9L 29.067 9C 26.865 9 25.007 10.555 25.007 12.582L 25.007 16.152C 25.007 18.179 26.866 20 29.067 20L 29.999 20Z"/>
<path id="path1_fill" fill-rule="evenodd" d="M 16.1431 25L 13.8461 25C 10.6801 25 7.99707 22.405 7.99707 19.365L 7.99707 12.55C 7.99707 9.508 10.6791 7 13.8471 7L 16.1421 7C 19.3091 7 21.9921 9.508 21.9921 12.55L 21.9921 19.365C 21.9941 22.405 19.3111 25 16.1431 25ZM 19.949 12.43C 19.949 10.49 18.181 9 15.978 9L 13.96 9C 11.758 9 9.98999 10.49 9.98999 12.43L 9.98999 16.57C 9.98999 18.51 11.758 20 13.96 20L 15.978 20C 18.181 20 19.949 18.51 19.949 16.57L 19.949 12.43Z"/>
<path id="path2_fill" fill-rule="evenodd" d="M 14.51 19L 14.4 19C 12.37 19 10.99 17.926 10.99 15.828L 10.99 14.54C 10.99 14.54 10.983 14 11.473 14C 11.963 14 11.963 14.54 11.963 14.54L 11.963 15.828C 11.963 17.388 12.908 18.023 14.4 18.023L 14.51 18.023C 14.51 18.023 14.989 18.046 14.989 18.521C 14.987 18.995 14.509 19 14.509 19L 14.51 19Z"/>
</defs>
</svg>
