<svg width="14" height="14" viewBox="0 0 14 14" version="1.1" xmlns="http://www.w3.org/2000/svg" xmlns:xlink="http://www.w3.org/1999/xlink">
<title>viber-c7e034d1e5fc0b41f77f1d2085d7f21a</title>
<desc>Created using Figma</desc>
<g id="Canvas" transform="translate(-1941 -6641)">
<g id="viber-c7e034d1e5fc0b41f77f1d2085d7f21a">
<g id="ic_viber">
<use xlink:href="#path0_fill" transform="translate(1941 6641)" fill="#5A5A5A"/>
</g>
</g>
</g>
<defs>
<path id="path0_fill" fill-rule="evenodd" d="M 13.8688 6.37158C 13.9097 3.12744 11.0248 0.120117 7.67432 0.00927734C 7.42151 0.0449219 6.89819 -0.161621 6.86584 0.394043C 6.84827 0.693848 7.12744 0.713867 7.38782 0.732422C 7.45239 0.737305 7.51587 0.741699 7.57336 0.750488C 11.0615 1.27637 12.6702 2.90234 13.1145 6.34668C 13.1202 6.39111 13.1227 6.43848 13.1241 6.4873L 13.126 6.57129C 13.1283 6.70898 13.1306 6.8501 13.1755 6.95898C 13.2219 7.07129 13.3137 7.14893 13.4977 7.15234C 13.9023 7.16016 13.8871 6.83154 13.8734 6.5376C 13.8707 6.47998 13.8682 6.42383 13.8688 6.37158ZM 11.0295 13.9644C 11.0889 13.9775 11.1409 13.9888 11.1821 14C 12.2686 14.0107 13.541 12.9849 13.9087 11.9663C 14.2196 11.1055 13.6794 10.7002 13.1426 10.2979C 13.0686 10.2427 12.9948 10.1875 12.9232 10.1309C 12.739 9.98535 12.5497 9.84668 12.3578 9.71094C 12.177 9.58252 11.994 9.45752 11.811 9.33252L 11.8019 9.32666L 11.5645 9.16406C 10.6506 8.53467 9.81506 8.48584 9.13342 9.49756C 8.75061 10.0659 8.21497 10.0908 7.65442 9.84131C 6.1095 9.15479 4.91675 8.09668 4.21802 6.55762C 3.90906 5.87646 3.91296 5.26611 4.63647 4.78418C 5.01929 4.5293 5.40491 4.22803 5.37402 3.67139C 5.33374 2.9458 3.5365 0.520508 2.82654 0.26416C 2.61072 0.186523 2.39539 0.169434 2.17786 0.205078C 2.09949 0.218262 2.02075 0.237793 1.94153 0.263672C 0.277344 0.8125 -0.412354 2.1543 0.248047 3.74365C 2.21741 8.48389 5.68384 11.7842 10.455 13.7983C 10.6537 13.8823 10.8685 13.9292 11.0295 13.9644ZM 12.1488 5.79004C 12.1409 5.84814 12.1432 5.91602 12.1456 5.98682C 12.1533 6.20605 12.1619 6.44971 11.8655 6.49414C 11.4409 6.55762 11.4227 6.26465 11.4056 5.98877C 11.4014 5.92041 11.3972 5.85303 11.387 5.79248C 11.0323 3.69727 10.2822 2.92871 8.12781 2.45654C 8.07092 2.44434 8.0083 2.43555 7.94434 2.42676L 7.93262 2.42529C 7.64343 2.38623 7.3324 2.34424 7.3988 1.95654C 7.47693 1.5 7.92029 1.65527 8.25537 1.69434C 10.408 1.94775 12.1661 3.77881 12.1488 5.79004ZM 10.4652 5.78711C 10.5118 5.6792 10.5167 5.54199 10.5116 5.40869C 10.5273 4.43848 9.40845 3.31641 8.45325 3.33984C 8.34082 3.34277 8.22949 3.3501 8.13599 3.38623C 8.04346 3.42236 7.96838 3.48682 7.92737 3.60352C 7.83044 3.87891 7.96997 3.98926 8.16272 4.04492C 8.21521 4.06006 8.27173 4.0708 8.32849 4.07959C 9.21252 4.21875 9.67725 4.72949 9.7655 5.59326C 9.7738 5.67383 9.797 5.74902 9.83325 5.81201C 9.90283 5.93262 10.0204 6.00879 10.1724 5.99121C 10.3318 5.97266 10.4191 5.89404 10.4652 5.78711Z"/>
</defs>
</svg>
